<svg xmlns="http://www.w3.org/2000/svg" version="1.1" xmlns:xlink="http://www.w3.org/1999/xlink" xmlns:svgjs="http://svgjs.dev/svgjs" width="1440" height="80" preserveAspectRatio="none" viewBox="0 0 1440 80"><g mask="url(&quot;#SvgjsMask2285&quot;)" fill="none"><rect width="1440" height="80" x="0" y="0" fill="rgba(12, 0, 133, 1)"></rect><g mask="url(&quot;#SvgjsMask2287&quot;)"><path d="M945 45L935 45L925 45L915 55L905 55L895 55L885 55L875 55M1365 45L1355 55L1345 55L1335 55L1325 55L1315 55L1305 55L1295 55L1285 55M525 25L515 35L505 35L495 35L485 45M675 25L665 35L655 35L645 35L635 35L625 35L615 35L605 35L595 35L585 35L575 35L565 45L555 55L545 55L535 55L525 55L515 65M1305 45L1295 35L1285 35M1155 45L1145 35L1135 35L1125 35L1115 35L1105 35L1095 35L1085 35L1075 35L1065 35M725 25L715 35L705 35L695 35M1385 45L1375 55L1365 55M1255 45L1245 35M385 25L375 35L365 35L355 35L345 35L335 35L325 35L315 35L305 35L295 35L285 45L275 45L265 45L255 45M1185 35L1175 35L1165 35L1155 35M895 35L885 45L875 45L865 45L855 45L845 45L835 45L825 45L815 45L805 45L795 45L785 45L775 45L765 45L755 45L745 45L735 55L725 55L715 55L705 55L695 55L685 55L675 55L665 55L655 55L645 55L635 55L625 55L615 55L605 55L595 55L585 65L575 65L565 65L555 65L545 65L535 65L525 65M1435 45L1425 35L1415 35L1405 35L1395 35L1385 35M205 45L195 45L185 45L175 35L165 25L155 25L145 25L135 25L125 25L115 25L105 25L95 25L85 25M1055 55L1045 45L1035 35M265 35L255 25L245 25L235 25L225 25L215 25L205 25L195 25L185 25L175 25M415 25L405 35L395 35L385 35L375 45L365 45L355 45L345 45M75 55L65 65M1115 45L1105 55M1125 45L1115 55M985 45L975 35L965 35L955 35L945 35M1085 55L1075 45L1065 45L1055 45L1045 35M1315 45L1305 35M65 55L55 55L45 55L35 55L25 55M245 35L235 45L225 45L215 45M545 25L535 35L525 35L515 45L505 55L495 55L485 65L475 65L465 65L455 65L445 65L435 65L425 65L415 65L405 55L395 45L385 45L375 55L365 55L355 55L345 55L335 55L325 55L315 45L305 45L295 55M1105 45L1095 45L1085 45M1165 45L1155 55L1145 55L1135 55L1125 55M1345 45L1335 35L1325 35M95 55L85 65L75 65M445 25L435 35L425 35L415 35L405 45M555 25L545 35L535 45L525 45M485 25L475 35L465 35L455 35L445 35M735 25L725 35L715 45L705 45L695 45M1025 55L1015 45L1005 45L995 45L985 35M1455 45L1445 45L1435 45L1425 45L1415 45L1405 45L1395 45L1385 45L1375 45L1365 45L1355 45L1345 45L1335 45L1325 45L1315 45L1305 45L1295 45L1285 45L1275 45L1265 45L1255 45L1245 45L1235 45L1225 45L1215 35L1205 35L1195 35L1185 35L1175 45L1165 45L1155 45L1145 45L1135 45L1125 45L1115 45L1105 45L1095 55L1085 55L1075 55L1065 55L1055 55L1045 55L1035 55L1025 55L1015 55L1005 55L995 55L985 45L975 45L965 45L955 45L945 45L935 35L925 35L915 35L905 35L895 35L885 35L875 35L865 35L855 35L845 35L835 35L825 35L815 35L805 35L795 35L785 35L775 35L765 35L755 35L745 35L735 25L725 25L715 25L705 25L695 25L685 25L675 25L665 25L655 25L645 25L635 25L625 25L615 25L605 25L595 25L585 25L575 25L565 25L555 25L545 25L535 25L525 25L515 25L505 25L495 25L485 25L475 25L465 25L455 25L445 25L435 25L425 25L415 25L405 25L395 25L385 25L375 25L365 25L355 25L345 25L335 25L325 25L315 25L305 25L295 25L285 35L275 35L265 35L255 35L245 35L235 35L225 35L215 35L205 45L195 55L185 55L175 55L165 55L155 55L145 55L135 55L125 55L115 55L105 55L95 55L85 55L75 55L65 55L55 45" stroke="url(&quot;#SvgjsLinearGradient2286&quot;)" stroke-width="1.67"></path><path d="M52.5 45 a2.5 2.5 0 1 0 5 0 a2.5 2.5 0 1 0 -5 0zM872.5 55 a2.5 2.5 0 1 0 5 0 a2.5 2.5 0 1 0 -5 0zM1282.5 55 a2.5 2.5 0 1 0 5 0 a2.5 2.5 0 1 0 -5 0zM482.5 45 a2.5 2.5 0 1 0 5 0 a2.5 2.5 0 1 0 -5 0zM512.5 65 a2.5 2.5 0 1 0 5 0 a2.5 2.5 0 1 0 -5 0zM1282.5 35 a2.5 2.5 0 1 0 5 0 a2.5 2.5 0 1 0 -5 0zM1062.5 35 a2.5 2.5 0 1 0 5 0 a2.5 2.5 0 1 0 -5 0zM692.5 35 a2.5 2.5 0 1 0 5 0 a2.5 2.5 0 1 0 -5 0zM1362.5 55 a2.5 2.5 0 1 0 5 0 a2.5 2.5 0 1 0 -5 0zM1242.5 35 a2.5 2.5 0 1 0 5 0 a2.5 2.5 0 1 0 -5 0zM252.5 45 a2.5 2.5 0 1 0 5 0 a2.5 2.5 0 1 0 -5 0zM1152.5 35 a2.5 2.5 0 1 0 5 0 a2.5 2.5 0 1 0 -5 0zM522.5 65 a2.5 2.5 0 1 0 5 0 a2.5 2.5 0 1 0 -5 0zM1382.5 35 a2.5 2.5 0 1 0 5 0 a2.5 2.5 0 1 0 -5 0zM82.5 25 a2.5 2.5 0 1 0 5 0 a2.5 2.5 0 1 0 -5 0zM1032.5 35 a2.5 2.5 0 1 0 5 0 a2.5 2.5 0 1 0 -5 0zM172.5 25 a2.5 2.5 0 1 0 5 0 a2.5 2.5 0 1 0 -5 0zM342.5 45 a2.5 2.5 0 1 0 5 0 a2.5 2.5 0 1 0 -5 0zM62.5 65 a2.5 2.5 0 1 0 5 0 a2.5 2.5 0 1 0 -5 0zM1102.5 55 a2.5 2.5 0 1 0 5 0 a2.5 2.5 0 1 0 -5 0zM1112.5 55 a2.5 2.5 0 1 0 5 0 a2.5 2.5 0 1 0 -5 0zM942.5 35 a2.5 2.5 0 1 0 5 0 a2.5 2.5 0 1 0 -5 0zM1042.5 35 a2.5 2.5 0 1 0 5 0 a2.5 2.5 0 1 0 -5 0zM1302.5 35 a2.5 2.5 0 1 0 5 0 a2.5 2.5 0 1 0 -5 0zM22.5 55 a2.5 2.5 0 1 0 5 0 a2.5 2.5 0 1 0 -5 0zM212.5 45 a2.5 2.5 0 1 0 5 0 a2.5 2.5 0 1 0 -5 0zM292.5 55 a2.5 2.5 0 1 0 5 0 a2.5 2.5 0 1 0 -5 0zM1082.5 45 a2.5 2.5 0 1 0 5 0 a2.5 2.5 0 1 0 -5 0zM1122.5 55 a2.5 2.5 0 1 0 5 0 a2.5 2.5 0 1 0 -5 0zM1322.5 35 a2.5 2.5 0 1 0 5 0 a2.5 2.5 0 1 0 -5 0zM72.5 65 a2.5 2.5 0 1 0 5 0 a2.5 2.5 0 1 0 -5 0zM402.5 45 a2.5 2.5 0 1 0 5 0 a2.5 2.5 0 1 0 -5 0zM522.5 45 a2.5 2.5 0 1 0 5 0 a2.5 2.5 0 1 0 -5 0zM442.5 35 a2.5 2.5 0 1 0 5 0 a2.5 2.5 0 1 0 -5 0zM692.5 45 a2.5 2.5 0 1 0 5 0 a2.5 2.5 0 1 0 -5 0zM982.5 35 a2.5 2.5 0 1 0 5 0 a2.5 2.5 0 1 0 -5 0z" fill="url(&quot;#SvgjsLinearGradient2286&quot;)"></path><path d="M1265 25L1255 35M1005 35L995 35M1235 35L1225 25M1025 35L1015 25L1005 25M1445 25L1435 35M1375 25L1365 35L1355 35L1345 35M1275 25L1265 35M1245 25L1235 25M1455 35L1445 25L1435 25L1425 25L1415 25L1405 25L1395 25L1385 25L1375 25L1365 25L1355 25L1345 25L1335 25L1325 25L1315 25L1305 25L1295 25L1285 25L1275 25L1265 25L1255 25L1245 25L1235 35L1225 35L1215 25L1205 25L1195 25L1185 25L1175 25L1165 25L1155 25L1145 25L1135 25L1125 25L1115 25L1105 25L1095 25L1085 25L1075 25L1065 25L1055 25L1045 25L1035 25L1025 35L1015 35L1005 35L995 25L985 25L975 25L965 25L955 25L945 25L935 25L925 25L915 25L905 25L895 25L885 25L875 25L865 25L855 25L845 25L835 25L825 25L815 25L805 25L795 25L785 25L775 25L765 25L755 25L745 25" stroke="url(&quot;#SvgjsLinearGradient2286&quot;)" stroke-width="1.67"></path><path d="M742.5 25 a2.5 2.5 0 1 0 5 0 a2.5 2.5 0 1 0 -5 0zM1252.5 35 a2.5 2.5 0 1 0 5 0 a2.5 2.5 0 1 0 -5 0zM992.5 35 a2.5 2.5 0 1 0 5 0 a2.5 2.5 0 1 0 -5 0zM1222.5 25 a2.5 2.5 0 1 0 5 0 a2.5 2.5 0 1 0 -5 0zM1002.5 25 a2.5 2.5 0 1 0 5 0 a2.5 2.5 0 1 0 -5 0zM1432.5 35 a2.5 2.5 0 1 0 5 0 a2.5 2.5 0 1 0 -5 0zM1342.5 35 a2.5 2.5 0 1 0 5 0 a2.5 2.5 0 1 0 -5 0zM1262.5 35 a2.5 2.5 0 1 0 5 0 a2.5 2.5 0 1 0 -5 0zM1232.5 25 a2.5 2.5 0 1 0 5 0 a2.5 2.5 0 1 0 -5 0z" fill="url(&quot;#SvgjsLinearGradient2286&quot;)"></path><path d="M865 65L855 55L845 55L835 55L825 55M1205 45L1195 55L1185 55L1175 65M955 65L945 55M1405 65L1395 55L1385 55M805 55L795 65M1265 65L1255 55M1435 55L1425 65M785 55L775 55L765 55L755 55L745 55M815 65L805 65M1175 55L1165 55M1445 55L1435 65M1255 65L1245 65L1235 65L1225 65L1215 65M1275 65L1265 55M995 65L985 65L975 65M1215 45L1205 55L1195 65L1185 65M1225 55L1215 55M1415 65L1405 55M1425 55L1415 55M975 55L965 55L955 55M1455 55L1445 55L1435 55L1425 55L1415 65L1405 65L1395 65L1385 65L1375 65L1365 65L1355 65L1345 65L1335 65L1325 65L1315 65L1305 65L1295 65L1285 65L1275 65L1265 65L1255 65L1245 55L1235 55L1225 55L1215 45L1205 45L1195 45L1185 45L1175 55L1165 65L1155 65L1145 65L1135 65L1125 65L1115 65L1105 65L1095 65L1085 65L1075 65L1065 65L1055 65L1045 65L1035 65L1025 65L1015 65L1005 65L995 65L985 55L975 55L965 65L955 65L945 65L935 65L925 65L915 65L905 65L895 65L885 65L875 65L865 65L855 65L845 65L835 65L825 65L815 65L805 55L795 55L785 55L775 65L765 65L755 65L745 65L735 65L725 65L715 65L705 65L695 65L685 65L675 65" stroke="url(&quot;#SvgjsLinearGradient2286&quot;)" stroke-width="1.67"></path><path d="M672.5 65 a2.5 2.5 0 1 0 5 0 a2.5 2.5 0 1 0 -5 0zM822.5 55 a2.5 2.5 0 1 0 5 0 a2.5 2.5 0 1 0 -5 0zM1172.5 65 a2.5 2.5 0 1 0 5 0 a2.5 2.5 0 1 0 -5 0zM942.5 55 a2.5 2.5 0 1 0 5 0 a2.5 2.5 0 1 0 -5 0zM1382.5 55 a2.5 2.5 0 1 0 5 0 a2.5 2.5 0 1 0 -5 0zM792.5 65 a2.5 2.5 0 1 0 5 0 a2.5 2.5 0 1 0 -5 0zM1252.5 55 a2.5 2.5 0 1 0 5 0 a2.5 2.5 0 1 0 -5 0zM1422.5 65 a2.5 2.5 0 1 0 5 0 a2.5 2.5 0 1 0 -5 0zM742.5 55 a2.5 2.5 0 1 0 5 0 a2.5 2.5 0 1 0 -5 0zM802.5 65 a2.5 2.5 0 1 0 5 0 a2.5 2.5 0 1 0 -5 0zM1162.5 55 a2.5 2.5 0 1 0 5 0 a2.5 2.5 0 1 0 -5 0zM1432.5 65 a2.5 2.5 0 1 0 5 0 a2.5 2.5 0 1 0 -5 0zM1212.5 65 a2.5 2.5 0 1 0 5 0 a2.5 2.5 0 1 0 -5 0zM1262.5 55 a2.5 2.5 0 1 0 5 0 a2.5 2.5 0 1 0 -5 0zM972.5 65 a2.5 2.5 0 1 0 5 0 a2.5 2.5 0 1 0 -5 0zM1182.5 65 a2.5 2.5 0 1 0 5 0 a2.5 2.5 0 1 0 -5 0zM1212.5 55 a2.5 2.5 0 1 0 5 0 a2.5 2.5 0 1 0 -5 0zM1402.5 55 a2.5 2.5 0 1 0 5 0 a2.5 2.5 0 1 0 -5 0zM1412.5 55 a2.5 2.5 0 1 0 5 0 a2.5 2.5 0 1 0 -5 0zM952.5 55 a2.5 2.5 0 1 0 5 0 a2.5 2.5 0 1 0 -5 0z" fill="url(&quot;#SvgjsLinearGradient2286&quot;)"></path></g></g><defs><mask id="SvgjsMask2285"><rect width="1440" height="80" fill="#ffffff"></rect></mask><linearGradient x1="1100.016" y1="420" x2="339.984" y2="-340" gradientUnits="userSpaceOnUse" id="SvgjsLinearGradient2286"><stop stop-color="#3a7cc3" offset="0"></stop><stop stop-color="rgba(215, 255, 83, 1)" offset="1"></stop></linearGradient><mask id="SvgjsMask2287"><rect width="1440" height="80" fill="white"></rect><path d="M53.75 45 a1.25 1.25 0 1 0 2.5 0 a1.25 1.25 0 1 0 -2.5 0zM873.75 55 a1.25 1.25 0 1 0 2.5 0 a1.25 1.25 0 1 0 -2.5 0zM1283.75 55 a1.25 1.25 0 1 0 2.5 0 a1.25 1.25 0 1 0 -2.5 0zM483.75 45 a1.25 1.25 0 1 0 2.5 0 a1.25 1.25 0 1 0 -2.5 0zM513.75 65 a1.25 1.25 0 1 0 2.5 0 a1.25 1.25 0 1 0 -2.5 0zM1283.75 35 a1.25 1.25 0 1 0 2.5 0 a1.25 1.25 0 1 0 -2.5 0zM1063.75 35 a1.25 1.25 0 1 0 2.5 0 a1.25 1.25 0 1 0 -2.5 0zM693.75 35 a1.25 1.25 0 1 0 2.5 0 a1.25 1.25 0 1 0 -2.5 0zM1363.75 55 a1.25 1.25 0 1 0 2.5 0 a1.25 1.25 0 1 0 -2.5 0zM1243.75 35 a1.25 1.25 0 1 0 2.5 0 a1.25 1.25 0 1 0 -2.5 0zM253.75 45 a1.25 1.25 0 1 0 2.5 0 a1.25 1.25 0 1 0 -2.5 0zM1153.75 35 a1.25 1.25 0 1 0 2.5 0 a1.25 1.25 0 1 0 -2.5 0zM523.75 65 a1.25 1.25 0 1 0 2.5 0 a1.25 1.25 0 1 0 -2.5 0zM1383.75 35 a1.25 1.25 0 1 0 2.5 0 a1.25 1.25 0 1 0 -2.5 0zM83.75 25 a1.25 1.25 0 1 0 2.5 0 a1.25 1.25 0 1 0 -2.5 0zM1033.75 35 a1.25 1.25 0 1 0 2.5 0 a1.25 1.25 0 1 0 -2.5 0zM173.75 25 a1.25 1.25 0 1 0 2.5 0 a1.25 1.25 0 1 0 -2.5 0zM343.75 45 a1.25 1.25 0 1 0 2.5 0 a1.25 1.25 0 1 0 -2.5 0zM63.75 65 a1.25 1.25 0 1 0 2.5 0 a1.25 1.25 0 1 0 -2.5 0zM1103.75 55 a1.25 1.25 0 1 0 2.5 0 a1.25 1.25 0 1 0 -2.5 0zM1113.75 55 a1.25 1.25 0 1 0 2.5 0 a1.25 1.25 0 1 0 -2.5 0zM943.75 35 a1.25 1.25 0 1 0 2.5 0 a1.25 1.25 0 1 0 -2.5 0zM1043.75 35 a1.25 1.25 0 1 0 2.5 0 a1.25 1.25 0 1 0 -2.5 0zM1303.75 35 a1.25 1.25 0 1 0 2.5 0 a1.25 1.25 0 1 0 -2.5 0zM23.75 55 a1.25 1.25 0 1 0 2.5 0 a1.25 1.25 0 1 0 -2.5 0zM213.75 45 a1.25 1.25 0 1 0 2.5 0 a1.25 1.25 0 1 0 -2.5 0zM293.75 55 a1.25 1.25 0 1 0 2.5 0 a1.25 1.25 0 1 0 -2.5 0zM1083.75 45 a1.25 1.25 0 1 0 2.5 0 a1.25 1.25 0 1 0 -2.5 0zM1123.75 55 a1.25 1.25 0 1 0 2.5 0 a1.25 1.25 0 1 0 -2.5 0zM1323.75 35 a1.25 1.25 0 1 0 2.5 0 a1.25 1.25 0 1 0 -2.5 0zM73.75 65 a1.25 1.25 0 1 0 2.5 0 a1.25 1.25 0 1 0 -2.5 0zM403.75 45 a1.25 1.25 0 1 0 2.5 0 a1.25 1.25 0 1 0 -2.5 0zM523.75 45 a1.25 1.25 0 1 0 2.5 0 a1.25 1.25 0 1 0 -2.5 0zM443.75 35 a1.25 1.25 0 1 0 2.5 0 a1.25 1.25 0 1 0 -2.5 0zM693.75 45 a1.25 1.25 0 1 0 2.5 0 a1.25 1.25 0 1 0 -2.5 0zM983.75 35 a1.25 1.25 0 1 0 2.5 0 a1.25 1.25 0 1 0 -2.5 0z" fill="black"></path><path d="M743.75 25 a1.25 1.25 0 1 0 2.5 0 a1.25 1.25 0 1 0 -2.5 0zM1253.75 35 a1.25 1.25 0 1 0 2.5 0 a1.25 1.25 0 1 0 -2.5 0zM993.75 35 a1.25 1.25 0 1 0 2.5 0 a1.25 1.25 0 1 0 -2.5 0zM1223.75 25 a1.25 1.25 0 1 0 2.5 0 a1.25 1.25 0 1 0 -2.5 0zM1003.75 25 a1.25 1.25 0 1 0 2.5 0 a1.25 1.25 0 1 0 -2.5 0zM1433.75 35 a1.25 1.25 0 1 0 2.5 0 a1.25 1.25 0 1 0 -2.5 0zM1343.75 35 a1.25 1.25 0 1 0 2.5 0 a1.25 1.25 0 1 0 -2.5 0zM1263.75 35 a1.25 1.25 0 1 0 2.5 0 a1.25 1.25 0 1 0 -2.5 0zM1233.75 25 a1.25 1.25 0 1 0 2.5 0 a1.25 1.25 0 1 0 -2.5 0z" fill="black"></path><path d="M673.75 65 a1.25 1.25 0 1 0 2.5 0 a1.25 1.25 0 1 0 -2.5 0zM823.75 55 a1.25 1.25 0 1 0 2.5 0 a1.25 1.25 0 1 0 -2.5 0zM1173.75 65 a1.25 1.25 0 1 0 2.5 0 a1.25 1.25 0 1 0 -2.5 0zM943.75 55 a1.25 1.25 0 1 0 2.5 0 a1.25 1.25 0 1 0 -2.5 0zM1383.75 55 a1.25 1.25 0 1 0 2.5 0 a1.25 1.25 0 1 0 -2.5 0zM793.75 65 a1.25 1.25 0 1 0 2.5 0 a1.25 1.25 0 1 0 -2.5 0zM1253.75 55 a1.25 1.25 0 1 0 2.5 0 a1.25 1.25 0 1 0 -2.5 0zM1423.75 65 a1.25 1.25 0 1 0 2.5 0 a1.25 1.25 0 1 0 -2.5 0zM743.75 55 a1.25 1.25 0 1 0 2.5 0 a1.25 1.25 0 1 0 -2.5 0zM803.75 65 a1.25 1.25 0 1 0 2.5 0 a1.25 1.25 0 1 0 -2.5 0zM1163.75 55 a1.25 1.25 0 1 0 2.5 0 a1.25 1.25 0 1 0 -2.5 0zM1433.75 65 a1.25 1.25 0 1 0 2.5 0 a1.25 1.25 0 1 0 -2.5 0zM1213.75 65 a1.25 1.25 0 1 0 2.5 0 a1.25 1.25 0 1 0 -2.5 0zM1263.75 55 a1.25 1.25 0 1 0 2.5 0 a1.25 1.25 0 1 0 -2.5 0zM973.75 65 a1.25 1.25 0 1 0 2.5 0 a1.25 1.25 0 1 0 -2.5 0zM1183.75 65 a1.25 1.25 0 1 0 2.5 0 a1.25 1.25 0 1 0 -2.5 0zM1213.75 55 a1.25 1.25 0 1 0 2.5 0 a1.25 1.25 0 1 0 -2.5 0zM1403.75 55 a1.25 1.25 0 1 0 2.5 0 a1.25 1.25 0 1 0 -2.5 0zM1413.75 55 a1.25 1.25 0 1 0 2.5 0 a1.25 1.25 0 1 0 -2.5 0zM953.75 55 a1.25 1.25 0 1 0 2.5 0 a1.25 1.25 0 1 0 -2.5 0z" fill="black"></path></mask></defs></svg>